<?xml version="1.0" encoding="UTF-8" standalone="no"?>
<!DOCTYPE svg PUBLIC "-//W3C//DTD SVG 1.1//EN" "http://www.w3.org/Graphics/SVG/1.1/DTD/svg11.dtd">
<svg xmlns="http://www.w3.org/2000/svg" version="1.1" viewBox="0.00 0.00 1394.00 532.00">
<rect fill="#ffffff" x="674.07" y="1.84" width="19.50" height="10.06" rx="4.76"/>
<rect fill="#ffffff" x="-10.99" y="-5.05" transform="translate(718.69,6.87) rotate(0.1)" width="21.98" height="10.10" rx="4.80"/>
<ellipse fill="#ffffff" cx="0.00" cy="0.00" transform="translate(741.99,8.61) rotate(19.0)" rx="7.46" ry="5.29"/>
<rect fill="#ffffff" x="-8.40" y="-5.04" transform="translate(655.18,11.63) rotate(-15.0)" width="16.80" height="10.08" rx="4.73"/>
<ellipse fill="#ffffff" cx="0.00" cy="0.00" transform="translate(764.58,16.74) rotate(19.1)" rx="7.28" ry="5.30"/>
<rect fill="#ffffff" x="-8.43" y="-5.02" transform="translate(633.27,21.27) rotate(-18.0)" width="16.86" height="10.04" rx="4.74"/>
<rect fill="#ffffff" x="-7.14" y="-5.02" transform="translate(790.55,27.52) rotate(40.0)" width="14.28" height="10.04" rx="4.72"/>
<rect fill="#ffffff" x="-8.34" y="-5.07" transform="translate(613.32,34.41) rotate(-38.6)" width="16.68" height="10.14" rx="4.80"/>
<rect fill="#ffffff" x="-7.20" y="-5.00" transform="translate(810.30,41.90) rotate(34.8)" width="14.40" height="10.00" rx="4.69"/>
<rect fill="#ffffff" x="-8.33" y="-5.05" transform="translate(591.72,49.22) rotate(-34.7)" width="16.66" height="10.10" rx="4.80"/>
<ellipse fill="#ffffff" cx="0.00" cy="0.00" transform="translate(827.52,54.01) rotate(25.5)" rx="7.39" ry="5.31"/>
<rect fill="#ffffff" x="-5.09" y="-8.35" transform="translate(573.49,66.46) rotate(36.4)" width="10.18" height="16.70" rx="4.81"/>
<ellipse fill="#ffffff" cx="0.00" cy="0.00" transform="translate(844.18,69.65) rotate(40.2)" rx="6.18" ry="5.13"/>
<rect fill="#ffffff" x="-5.09" y="-12.17" transform="translate(861.12,95.49) rotate(-21.9)" width="10.18" height="24.34" rx="4.88"/>
<rect fill="#ffffff" x="-5.01" y="-7.13" transform="translate(554.88,93.57) rotate(17.4)" width="10.02" height="14.26" rx="4.69"/>
<rect fill="#ffffff" x="-8.40" y="-5.00" transform="translate(189.85,108.57) rotate(-14.0)" width="16.80" height="10.00" rx="4.71"/>
<rect fill="#ffffff" x="-7.26" y="-4.97" transform="translate(956.85,107.97) rotate(-0.4)" width="14.52" height="9.94" rx="4.64"/>
<rect fill="#ffffff" x="153.37" y="104.64" width="17.08" height="9.80" rx="4.62"/>
<rect fill="#ffffff" x="-10.95" y="-5.01" transform="translate(218.86,111.11) rotate(5.0)" width="21.90" height="10.02" rx="4.76"/>
<rect fill="#ffffff" x="-9.69" y="-5.02" transform="translate(132.84,114.31) rotate(-19.0)" width="19.38" height="10.04" rx="4.79"/>
<ellipse fill="#ffffff" cx="0.00" cy="0.00" transform="translate(530.14,113.19) rotate(-0.3)" rx="6.20" ry="5.16"/>
<ellipse fill="#ffffff" cx="0.00" cy="0.00" transform="translate(512.83,113.47) rotate(2.6)" rx="7.10" ry="5.43"/>
<ellipse fill="#ffffff" cx="0.00" cy="0.00" transform="translate(940.43,116.29) rotate(109.8)" rx="6.10" ry="5.16"/>
<rect fill="#ffffff" x="-5.07" y="-8.30" transform="translate(981.05,119.92) rotate(-18.2)" width="10.14" height="16.60" rx="4.78"/>
<rect fill="#ffffff" x="-10.92" y="-5.05" transform="translate(249.31,120.03) rotate(20.4)" width="21.84" height="10.10" rx="4.82"/>
<rect fill="#ffffff" x="-8.25" y="-5.02" transform="translate(493.66,119.41) rotate(-30.0)" width="16.50" height="10.04" rx="4.75"/>
<rect fill="#ffffff" x="-4.69" y="-8.47" transform="translate(542.54,123.23) rotate(11.7)" width="9.38" height="16.94" rx="4.43"/>
<rect fill="#ffffff" x="-5.04" y="-8.44" transform="translate(876.30,125.26) rotate(-23.1)" width="10.08" height="16.88" rx="4.76"/>
<rect fill="#ffffff" x="-10.96" y="-5.05" transform="translate(104.63,124.91) rotate(-27.3)" width="21.92" height="10.10" rx="4.84"/>
<rect fill="#ffffff" x="-9.54" y="-5.05" transform="translate(273.59,134.43) rotate(37.3)" width="19.08" height="10.10" rx="4.82"/>
<rect fill="#ffffff" x="-5.02" y="-7.14" transform="translate(476.43,138.04) rotate(8.1)" width="10.04" height="14.28" rx="4.68"/>
<rect fill="#ffffff" x="-4.93" y="-7.27" transform="translate(932.62,139.25) rotate(0.1)" width="9.86" height="14.54" rx="4.60"/>
<rect fill="#ffffff" x="-8.44" y="-5.04" transform="translate(83.05,140.15) rotate(-36.8)" width="16.88" height="10.08" rx="4.79"/>
<rect fill="#ffffff" x="-5.05" y="-8.42" transform="translate(981.40,143.70) rotate(22.9)" width="10.10" height="16.84" rx="4.77"/>
<path fill="#ffffff" d="
  M 539.14 148.96
  Q 538.00 151.40 538.21 154.02
  Q 538.41 156.48 536.39 157.93
  C 532.28 160.88 528.24 157.06 527.74 152.95
  Q 527.48 150.79 528.42 148.41
  C 529.72 145.14 531.47 139.06 536.40 140.56
  C 540.32 141.76 540.68 145.69 539.14 148.96
  Z"
/>
<rect fill="#ffffff" x="-5.02" y="-8.40" transform="translate(881.72,151.38) rotate(-14.8)" width="10.04" height="16.80" rx="4.74"/>
<rect fill="#ffffff" x="-7.17" y="-4.99" transform="translate(296.47,149.98) rotate(36.0)" width="14.34" height="9.98" rx="4.70"/>
<rect fill="#ffffff" x="-5.01" y="-8.51" transform="translate(63.59,155.97) rotate(45.0)" width="10.02" height="17.02" rx="4.76"/>
<rect fill="#ffffff" x="-8.30" y="-5.06" transform="translate(965.49,157.58) rotate(-30.5)" width="16.60" height="10.12" rx="4.79"/>
<rect fill="#ffffff" x="-5.02" y="-8.35" transform="translate(472.61,164.21) rotate(-12.3)" width="10.04" height="16.70" rx="4.71"/>
<path fill="#ffffff" d="
  M 937.16 157.96
  L 943.60 160.38
  A 4.11 4.11 0.0 0 1 946.08 165.41
  L 944.80 169.68
  A 4.11 4.11 0.0 0 1 940.08 172.53
  L 929.94 170.56
  A 4.11 4.11 0.0 0 1 927.90 163.54
  L 932.88 158.82
  A 4.11 4.11 0.0 0 1 937.16 157.96
  Z"
/>
<rect fill="#ffffff" x="-10.95" y="-5.07" transform="translate(315.53,168.05) rotate(43.1)" width="21.90" height="10.14" rx="4.86"/>
<rect fill="#ffffff" x="-7.56" y="-5.00" transform="translate(1240.36,164.49) rotate(-0.3)" width="15.12" height="10.00" rx="4.67"/>
<path fill="#ffffff" d="
  M 1200.34 162.68
  C 1202.63 157.02 1214.13 160.10 1218.44 161.77
  Q 1221.97 163.13 1221.91 166.91
  Q 1221.90 167.53 1221.64 168.11
  Q 1219.68 172.38 1214.91 171.01
  Q 1210.13 169.63 1205.41 169.42
  C 1201.74 169.26 1198.83 166.41 1200.34 162.68
  Z"
/>
<rect fill="#ffffff" x="-10.81" y="-4.97" transform="translate(1178.85,166.52) rotate(-0.1)" width="21.62" height="9.94" rx="4.70"/>
<path fill="#ffffff" d="
  M 1195.06 163.79
  Q 1195.00 164.10 1194.75 164.32
  Q 1194.49 164.54 1194.56 164.20
  Q 1194.88 162.61 1196.35 161.73
  Q 1197.06 161.32 1196.58 161.98
  Q 1195.90 162.93 1195.06 163.79
  Z"
/>
<rect fill="#ffffff" x="-7.25" y="-4.92" transform="translate(904.32,168.59) rotate(0.1)" width="14.50" height="9.84" rx="4.59"/>
<rect fill="#ffffff" x="-9.74" y="-4.98" transform="translate(1151.57,169.68) rotate(-1.0)" width="19.48" height="9.96" rx="4.72"/>
<ellipse fill="#ffffff" cx="0.00" cy="0.00" transform="translate(527.67,172.60) rotate(118.6)" rx="7.51" ry="5.27"/>
<rect fill="#ffffff" x="-10.76" y="-5.03" transform="translate(1268.42,172.04) rotate(5.6)" width="21.52" height="10.06" rx="4.77"/>
<ellipse fill="#ffffff" cx="0.00" cy="0.00" transform="translate(46.34,174.57) rotate(113.7)" rx="7.37" ry="5.33"/>
<path fill="#ffffff" d="
  M 1133.96 180.19
  C 1131.17 182.04 1127.60 183.52 1124.27 183.83
  Q 1121.02 184.14 1118.39 185.85
  C 1115.81 187.53 1112.77 187.00 1111.23 184.23
  C 1109.77 181.58 1111.30 178.17 1113.42 176.48
  Q 1115.07 175.16 1117.40 174.75
  Q 1123.03 173.76 1128.71 171.89
  C 1131.71 170.90 1134.58 171.95 1135.59 175.04
  C 1136.19 176.89 1135.64 179.08 1133.96 180.19
  Z"
/>
<rect fill="#ffffff" x="-5.00" y="-9.75" transform="translate(884.18,182.69) rotate(0.1)" width="10.00" height="19.50" rx="4.73"/>
<ellipse fill="#ffffff" cx="0.00" cy="0.00" transform="translate(1292.50,178.87) rotate(-0.3)" rx="6.48" ry="5.35"/>
<rect fill="#ffffff" x="-9.46" y="-5.12" transform="translate(949.69,183.83) rotate(42.8)" width="18.92" height="10.24" rx="4.87"/>
<rect fill="#ffffff" x="-8.49" y="-5.02" transform="translate(513.11,186.19) rotate(-36.1)" width="16.98" height="10.04" rx="4.76"/>
<rect fill="#ffffff" x="-5.01" y="-9.74" transform="translate(333.76,189.87) rotate(-35.7)" width="10.02" height="19.48" rx="4.79"/>
<ellipse fill="#ffffff" cx="0.00" cy="0.00" transform="translate(487.49,188.14) rotate(13.7)" rx="7.40" ry="5.32"/>
<path fill="#ffffff" d="
  M 1082.29 203.57
  C 1078.10 201.01 1079.65 195.18 1083.28 192.81
  Q 1088.15 189.63 1092.78 186.37
  C 1096.82 183.53 1102.63 188.00 1100.27 192.33
  Q 1099.12 194.43 1097.10 195.68
  Q 1091.82 198.95 1088.00 202.79
  Q 1085.36 205.44 1082.29 203.57
  Z"
/>
<rect fill="#ffffff" x="-9.46" y="-5.07" transform="translate(1315.47,192.75) rotate(18.1)" width="18.92" height="10.14" rx="4.81"/>
<rect fill="#ffffff" x="-5.05" y="-8.43" transform="translate(30.36,197.84) rotate(23.0)" width="10.10" height="16.86" rx="4.77"/>
<path fill="#ffffff" d="
  M 957.03 199.61
  C 954.55 194.01 961.82 189.56 965.60 194.83
  C 967.77 197.85 970.67 199.21 973.36 201.53
  C 978.43 205.91 972.80 213.01 967.25 209.33
  C 963.17 206.61 959.11 204.29 957.03 199.61
  Z"
/>
<rect fill="#ffffff" x="-5.02" y="-8.45" transform="translate(346.56,211.16) rotate(-19.6)" width="10.04" height="16.90" rx="4.74"/>
<path fill="#ffffff" d="
  M 1056.09 210.02
  Q 1058.90 208.28 1061.67 206.19
  Q 1065.45 203.35 1068.54 206.78
  Q 1068.61 206.86 1068.68 206.96
  Q 1071.28 210.69 1068.13 213.67
  Q 1060.50 220.87 1050.57 222.68
  Q 1047.81 223.18 1045.94 220.88
  Q 1044.93 219.64 1044.89 217.99
  Q 1044.85 216.08 1046.01 214.78
  Q 1047.44 213.18 1049.92 212.47
  Q 1051.50 212.02 1053.01 211.48
  Q 1054.74 210.86 1056.09 210.02
  Z"
/>
<rect fill="#ffffff" x="-5.00" y="-8.52" transform="translate(1339.92,213.16) rotate(-43.4)" width="10.00" height="17.04" rx="4.76"/>
<rect fill="#ffffff" x="-5.00" y="-9.68" transform="translate(880.71,220.00) rotate(3.1)" width="10.00" height="19.36" rx="4.72"/>
<ellipse fill="#ffffff" cx="0.00" cy="0.00" transform="translate(980.91,216.89) rotate(31.2)" rx="7.29" ry="5.40"/>
<ellipse fill="#ffffff" cx="0.00" cy="0.00" transform="translate(19.61,218.39) rotate(122.6)" rx="7.45" ry="5.30"/>
<circle fill="#ffffff" cx="353.53" cy="224.03" r="4.87"/>
<rect fill="#ffffff" x="-8.44" y="-5.03" transform="translate(1000.73,226.62) rotate(25.7)" width="16.88" height="10.06" rx="4.77"/>
<path fill="#ffffff" d="
  M 1034.04 221.17
  A 2.46 2.46 0.0 0 1 1036.93 223.10
  L 1037.35 225.22
  A 7.64 5.86 -11.2 0 1 1031.00 232.46
  L 1026.92 233.26
  A 7.64 5.86 -11.2 0 1 1018.28 229.00
  L 1017.87 226.88
  A 2.46 2.46 0.0 0 1 1019.80 223.99
  L 1034.04 221.17
  Z"
/>
<path fill="#ffffff" d="
  M 1361.78 237.97
  Q 1363.23 240.61 1365.49 243.20
  Q 1368.33 246.46 1365.81 249.66
  Q 1364.02 251.92 1361.26 251.41
  C 1356.32 250.51 1352.18 242.28 1350.70 238.00
  C 1349.93 235.77 1350.98 233.14 1353.17 232.21
  C 1358.15 230.10 1359.90 234.56 1361.78 237.97
  Z"
/>
<rect fill="#ffffff" x="-3.61" y="-8.18" transform="translate(12.21,241.43) rotate(18.5)" width="7.22" height="16.36" rx="3.44"/>
<rect fill="#ffffff" x="-5.14" y="-10.06" transform="translate(358.23,243.79) rotate(-2.8)" width="10.28" height="20.12" rx="4.85"/>
<path fill="#ffffff" d="
  M 878.62 248.80
  Q 877.08 252.35 876.02 256.39
  C 875.30 259.13 872.28 260.65 869.63 259.42
  C 865.70 257.60 866.14 253.24 867.40 249.74
  Q 869.22 244.67 871.31 241.21
  C 873.45 237.69 878.08 237.79 880.11 241.34
  C 881.61 243.96 879.64 246.45 878.62 248.80
  Z"
/>
<rect fill="#ffffff" x="-9.59" y="-5.06" transform="translate(462.01,249.84) rotate(31.9)" width="19.18" height="10.12" rx="4.83"/>
<path fill="#ffffff" d="
  M 445.61 258.74
  C 443.63 259.16 442.23 260.07 440.59 261.15
  Q 438.33 262.64 436.01 261.31
  C 432.46 259.26 432.72 255.55 435.10 252.77
  Q 438.98 248.23 444.87 249.11
  C 450.07 249.88 450.96 257.58 445.61 258.74
  Z"
/>
<ellipse fill="#ffffff" cx="0.00" cy="0.00" transform="translate(1044.78,258.85) rotate(78.9)" rx="5.83" ry="5.15"/>
<rect fill="#ffffff" x="-5.03" y="-8.41" transform="translate(479.71,264.88) rotate(-3.8)" width="10.06" height="16.82" rx="4.72"/>
<path fill="#ffffff" d="
  M 8.14 262.77
  Q 10.48 265.45 9.72 268.33
  Q 9.09 270.75 9.14 273.59
  C 9.21 277.55 8.53 281.72 6.24 285.00
  A 2.10 2.09 26.5 0 1 3.86 285.79
  Q 2.09 285.21 1.96 283.69
  Q 1.20 274.78 3.46 266.95
  Q 4.21 264.36 7.16 262.61
  Q 7.72 262.28 8.14 262.77
  Z"
/>
<rect fill="#ffffff" x="357.67" y="263.79" width="9.90" height="19.56" rx="4.68"/>
<path fill="#ffffff" d="
  M 866.04 275.00
  C 864.51 277.54 863.92 282.79 859.82 282.52
  C 854.19 282.15 853.70 276.27 855.81 272.37
  Q 857.39 269.44 859.31 266.67
  C 861.78 263.10 866.27 263.13 868.33 267.15
  C 869.57 269.57 867.29 272.93 866.04 275.00
  Z"
/>
<path fill="#ffffff" d="
  M 1371.49 272.43
  C 1367.73 266.37 1375.71 261.22 1379.72 266.73
  C 1382.32 270.30 1388.56 283.56 1380.54 285.31
  C 1377.43 285.98 1375.05 283.83 1374.62 280.84
  Q 1373.98 276.43 1371.49 272.43
  Z"
/>
<path fill="#ffffff" d="
  M 1044.77 267.82
  Q 1044.95 267.73 1045.14 267.72
  Q 1046.19 267.71 1045.21 268.08
  Q 1044.18 268.48 1043.04 268.14
  Q 1042.66 268.03 1043.05 268.06
  Q 1043.45 268.09 1043.82 268.07
  Q 1044.32 268.04 1044.77 267.82
  Z"
/>
<rect fill="#ffffff" x="-4.95" y="-7.25" transform="translate(431.68,276.55) rotate(0.3)" width="9.90" height="14.50" rx="4.62"/>
<path fill="#ffffff" d="
  M 1031.95 277.49
  Q 1033.93 273.29 1038.77 273.51
  C 1042.14 273.67 1042.89 277.10 1041.80 279.76
  Q 1040.59 282.70 1039.87 285.57
  C 1039.31 287.81 1037.06 289.64 1034.67 289.27
  C 1028.35 288.31 1030.02 281.57 1031.95 277.49
  Z"
/>
<rect fill="#ffffff" x="-4.98" y="-8.47" transform="translate(484.31,289.51) rotate(14.4)" width="9.96" height="16.94" rx="4.71"/>
<circle fill="#ffffff" cx="563.43" cy="287.65" r="4.86"/>
<path fill="#ffffff" d="
  M 848.07 305.95
  C 847.19 307.55 846.78 309.16 844.68 309.60
  C 837.71 311.06 836.93 302.42 840.36 298.43
  Q 843.10 295.25 845.44 292.12
  C 847.54 289.30 851.60 288.96 853.64 291.97
  Q 855.84 295.20 852.80 299.00
  Q 849.86 302.67 848.07 305.95
  Z"
/>
<rect fill="#ffffff" x="-5.00" y="-8.44" transform="translate(364.16,300.42) rotate(6.5)" width="10.00" height="16.88" rx="4.70"/>
<ellipse fill="#ffffff" cx="0.00" cy="0.00" transform="translate(437.23,298.89) rotate(84.8)" rx="6.18" ry="5.15"/>
<rect fill="#ffffff" x="-2.65" y="-6.30" transform="translate(6.36,299.40) rotate(1.3)" width="5.30" height="12.60" rx="2.51"/>
<ellipse fill="#ffffff" cx="0.00" cy="0.00" transform="translate(1031.63,302.03) rotate(103.4)" rx="7.03" ry="5.38"/>
<path fill="#ffffff" d="
  M 582.60 307.61
  A 2.43 2.43 0.0 0 1 581.54 310.88
  L 579.84 311.74
  A 7.61 6.08 63.0 0 1 570.97 307.72
  L 570.37 306.55
  A 7.61 6.08 63.0 0 1 572.33 297.01
  L 574.03 296.14
  A 2.43 2.43 0.0 0 1 577.30 297.20
  L 582.60 307.61
  Z"
/>
<rect fill="#ffffff" x="-5.08" y="-10.82" transform="translate(1385.84,307.42) rotate(-8.7)" width="10.16" height="21.64" rx="4.82"/>
<rect fill="#ffffff" x="-5.10" y="-10.92" transform="translate(551.58,307.05) rotate(43.7)" width="10.20" height="21.84" rx="4.88"/>
<circle fill="#ffffff" cx="453.48" cy="314.00" r="4.86"/>
<path fill="#ffffff" d="
  M 471.58 314.60
  C 474.10 308.20 482.60 311.62 480.90 318.09
  Q 479.60 323.03 474.30 327.48
  C 471.91 329.48 468.71 329.41 466.83 326.87
  C 464.80 324.11 466.25 321.17 468.58 319.03
  Q 470.53 317.25 471.58 314.60
  Z"
/>
<rect fill="#ffffff" x="-5.06" y="-9.69" transform="translate(1028.62,321.46) rotate(7.1)" width="10.12" height="19.38" rx="4.79"/>
<path fill="#ffffff" d="
  M 593.01 329.24
  Q 586.78 326.57 584.59 321.01
  C 581.59 313.38 590.97 309.44 593.52 316.08
  Q 594.45 318.50 596.80 319.96
  C 599.21 321.45 600.99 324.45 599.25 327.14
  Q 596.84 330.88 593.01 329.24
  Z"
/>
<ellipse fill="#ffffff" cx="0.00" cy="0.00" transform="translate(9.07,319.89) rotate(80.3)" rx="7.27" ry="3.09"/>
<path fill="#ffffff" d="
  M 824.77 318.07
  Q 826.29 316.48 828.28 315.42
  A 1.38 1.37 40.7 0 1 829.40 315.34
  C 838.92 318.89 825.12 331.38 822.28 334.52
  Q 820.19 336.83 817.51 335.91
  C 811.51 333.86 814.00 327.85 817.54 324.87
  Q 821.42 321.59 824.77 318.07
  Z"
/>
<path fill="#ffffff" d="
  M 519.20 323.87
  Q 525.23 321.06 529.80 317.08
  Q 533.38 313.96 536.78 317.28
  Q 537.17 317.67 537.43 318.15
  Q 539.18 321.39 536.68 324.09
  Q 531.74 329.42 523.35 332.88
  C 516.86 335.56 512.40 327.05 519.20 323.87
  Z"
/>
<path fill="#ffffff" d="
  M 376.27 328.75
  C 377.40 331.07 379.19 334.26 377.54 336.67
  C 374.59 340.99 370.08 339.28 368.03 335.16
  Q 366.47 332.00 365.11 328.70
  C 364.25 326.62 364.57 324.26 364.42 322.05
  C 364.09 317.23 370.48 317.27 372.25 320.71
  Q 374.19 324.47 376.27 328.75
  Z"
/>
<rect fill="#ffffff" x="-7.25" y="-4.94" transform="translate(494.13,330.33) rotate(-1.1)" width="14.50" height="9.88" rx="4.60"/>
<rect fill="#ffffff" x="-7.18" y="-5.03" transform="translate(611.99,334.12) rotate(22.2)" width="14.36" height="10.06" rx="4.71"/>
<path fill="#ffffff" d="
  M 13.69 338.43
  C 14.59 340.90 15.78 343.04 17.58 344.98
  A 2.44 2.32 -78.1 0 1 18.08 345.79
  Q 19.05 348.45 17.89 349.29
  Q 15.97 350.66 14.31 348.99
  Q 9.91 344.56 9.40 338.11
  A 1.49 1.47 86.2 0 1 10.79 336.51
  Q 12.94 336.40 13.69 338.43
  Z"
/>
<rect fill="#ffffff" x="-5.03" y="-11.00" transform="translate(1026.11,348.45) rotate(0.1)" width="10.06" height="22.00" rx="4.79"/>
<path fill="#ffffff" d="
  M 442.98 342.35
  A 2.93 2.91 -60.0 0 0 445.38 341.70
  Q 447.17 340.17 448.99 338.70
  C 452.04 336.21 456.26 338.07 456.92 341.82
  C 457.43 344.68 454.66 347.16 452.72 348.84
  Q 446.97 353.81 440.11 352.37
  Q 437.51 351.82 435.93 349.63
  C 433.33 346.00 436.48 340.99 440.95 341.96
  Q 441.97 342.18 442.98 342.35
  Z"
/>
<ellipse fill="#ffffff" cx="0.00" cy="0.00" transform="translate(631.96,344.56) rotate(11.2)" rx="7.26" ry="5.37"/>
<path fill="#ffffff" d="
  M 807.23 341.94
  C 809.70 345.65 805.48 349.06 803.09 351.26
  Q 798.81 355.20 792.23 354.31
  C 785.49 353.39 786.19 344.49 793.09 344.51
  Q 795.92 344.51 797.88 342.26
  C 800.54 339.19 804.53 337.90 807.23 341.94
  Z"
/>
<rect fill="#ffffff" x="-5.07" y="-9.66" transform="translate(1387.15,349.63) rotate(7.1)" width="10.14" height="19.32" rx="4.79"/>
<rect fill="#ffffff" x="-8.46" y="-5.02" transform="translate(394.27,349.75) rotate(22.3)" width="16.92" height="10.04" rx="4.74"/>
<rect fill="#ffffff" x="412.36" y="347.20" width="17.02" height="9.96" rx="4.69"/>
<ellipse fill="#ffffff" cx="0.00" cy="0.00" transform="translate(652.94,354.02) rotate(21.6)" rx="7.47" ry="5.31"/>
<rect fill="#ffffff" x="-9.65" y="-5.08" transform="translate(767.82,359.23) rotate(-28.4)" width="19.30" height="10.16" rx="4.84"/>
<rect fill="#ffffff" x="-2.51" y="-4.93" transform="translate(22.84,361.49) rotate(-25.7)" width="5.02" height="9.86" rx="2.33"/>
<path fill="#ffffff" d="
  M 690.40 364.58
  C 689.08 369.09 682.52 368.38 678.78 368.04
  Q 674.82 367.68 672.77 363.85
  C 670.36 359.35 674.91 354.71 679.58 357.08
  C 680.66 357.62 681.98 358.06 683.19 357.97
  C 687.26 357.67 691.86 359.62 690.40 364.58
  Z"
/>
<path fill="#ffffff" d="
  M 705.75 370.18
  C 702.42 368.71 698.84 365.80 700.83 361.88
  C 702.47 358.65 705.99 358.48 708.81 360.23
  Q 711.58 361.94 715.00 361.69
  C 722.64 361.13 724.03 370.54 717.23 371.57
  Q 711.01 372.51 705.75 370.18
  Z"
/>
<path fill="#ffffff" d="
  M 742.45 360.87
  C 748.01 358.50 752.44 364.98 748.18 368.89
  C 744.93 371.86 739.46 372.07 735.22 371.69
  C 731.88 371.38 727.98 368.98 728.54 365.18
  C 729.10 361.33 732.57 360.35 735.92 361.31
  Q 739.19 362.26 742.45 360.87
  Z"
/>
<path fill="#ffffff" d="
  M 1032.22 383.21
  C 1023.12 389.67 1017.60 366.60 1026.20 365.22
  C 1030.51 364.53 1032.25 367.88 1032.23 371.57
  Q 1032.22 374.40 1033.56 377.36
  C 1034.50 379.44 1034.12 381.87 1032.22 383.21
  Z"
/>
<ellipse fill="#ffffff" cx="0.00" cy="0.00" transform="translate(29.26,377.81) rotate(59.9)" rx="6.19" ry="2.71"/>
<rect fill="#ffffff" x="-5.04" y="-10.90" transform="translate(1384.18,388.02) rotate(25.8)" width="10.08" height="21.80" rx="4.82"/>
<ellipse fill="#ffffff" cx="0.00" cy="0.00" transform="translate(40.50,394.62) rotate(44.0)" rx="6.60" ry="2.89"/>
<rect fill="#ffffff" x="-5.04" y="-8.41" transform="translate(1034.72,400.32) rotate(-9.6)" width="10.08" height="16.82" rx="4.73"/>
<ellipse fill="#ffffff" cx="0.00" cy="0.00" transform="translate(52.69,411.22) rotate(50.0)" rx="5.64" ry="2.77"/>
<rect fill="#ffffff" x="-5.01" y="-9.68" transform="translate(1370.02,421.43) rotate(36.2)" width="10.02" height="19.36" rx="4.80"/>
<path fill="#ffffff" d="
  M 1051.63 427.26
  Q 1053.07 429.97 1052.29 432.11
  C 1050.81 436.18 1045.61 436.46 1043.30 432.77
  Q 1040.34 428.05 1039.67 423.24
  C 1038.62 415.76 1048.24 413.77 1049.39 420.71
  Q 1049.96 424.15 1051.63 427.26
  Z"
/>
<rect fill="#ffffff" x="-8.52" y="-5.02" transform="translate(70.10,429.96) rotate(39.8)" width="17.04" height="10.04" rx="4.77"/>
<path fill="#ffffff" d="
  M 86.09 434.81
  C 88.16 435.52 89.03 437.54 90.79 438.70
  C 92.71 439.98 94.59 440.94 94.82 443.55
  C 95.22 448.01 90.48 449.79 86.82 448.28
  Q 81.83 446.21 79.92 440.86
  C 78.60 437.14 82.42 433.56 86.09 434.81
  Z"
/>
<path fill="#ffffff" d="
  M 1359.57 446.72
  Q 1355.19 453.22 1349.47 456.36
  Q 1347.38 457.50 1345.19 456.82
  Q 1343.54 456.31 1342.58 454.78
  Q 1341.12 452.47 1342.16 450.24
  Q 1342.87 448.73 1344.44 447.64
  Q 1347.97 445.21 1351.78 440.82
  Q 1354.62 437.55 1358.23 439.87
  Q 1358.34 439.94 1358.44 440.02
  Q 1362.14 442.90 1359.57 446.72
  Z"
/>
<ellipse fill="#ffffff" cx="0.00" cy="0.00" transform="translate(1055.95,448.10) rotate(60.7)" rx="7.40" ry="5.33"/>
<path fill="#ffffff" d="
  M 117.99 462.60
  C 114.01 462.61 111.26 460.36 107.50 459.63
  C 103.40 458.83 101.95 454.46 104.79 451.38
  C 107.15 448.84 110.91 448.24 113.79 450.48
  Q 116.16 452.33 119.11 452.70
  C 126.07 453.58 125.05 462.59 117.99 462.60
  Z"
/>
<rect fill="#ffffff" x="-10.99" y="-5.02" transform="translate(140.30,461.75) rotate(21.5)" width="21.98" height="10.04" rx="4.81"/>
<rect fill="#ffffff" x="-5.08" y="-9.62" transform="translate(1071.41,468.18) rotate(-43.0)" width="10.16" height="19.24" rx="4.82"/>
<rect fill="#ffffff" x="-8.19" y="-5.07" transform="translate(172.47,465.38) rotate(7.1)" width="16.38" height="10.14" rx="4.74"/>
<ellipse fill="#ffffff" cx="0.00" cy="0.00" transform="translate(194.52,466.33) rotate(90.0)" rx="6.22" ry="5.09"/>
<path fill="#ffffff" d="
  M 1334.63 473.29
  C 1331.94 476.97 1324.24 487.30 1319.04 480.58
  C 1317.40 478.45 1317.94 475.62 1320.00 474.01
  Q 1323.76 471.06 1326.98 466.60
  C 1331.46 460.39 1339.44 466.72 1334.63 473.29
  Z"
/>
<path fill="#ffffff" d="
  M 1083.45 491.79
  C 1080.93 486.35 1087.63 481.24 1091.47 486.06
  Q 1093.25 488.29 1095.61 489.95
  C 1100.71 493.55 1096.42 500.76 1090.83 498.54
  Q 1085.63 496.48 1083.45 491.79
  Z"
/>
<rect fill="#ffffff" x="-12.06" y="-5.06" transform="translate(1303.14,498.06) rotate(-37.2)" width="24.12" height="10.12" rx="4.87"/>
<rect fill="#ffffff" x="-9.59" y="-5.07" transform="translate(1111.28,504.14) rotate(30.9)" width="19.18" height="10.14" rx="4.83"/>
<rect fill="#ffffff" x="-8.27" y="-5.06" transform="translate(1136.09,514.35) rotate(24.2)" width="16.54" height="10.12" rx="4.78"/>
<rect fill="#ffffff" x="-13.44" y="-5.07" transform="translate(1275.07,514.25) rotate(-11.6)" width="26.88" height="10.14" rx="4.87"/>
<path fill="#ffffff" d="
  M 1175.84 517.95
  C 1183.05 517.57 1184.00 527.38 1177.01 527.94
  C 1171.41 528.39 1164.42 528.57 1158.66 526.83
  C 1152.24 524.89 1154.32 516.08 1161.11 517.22
  Q 1167.89 518.36 1175.84 517.95
  Z"
/>
<rect fill="#ffffff" x="-10.89" y="-5.11" transform="translate(1200.76,524.84) rotate(-3.8)" width="21.78" height="10.22" rx="4.84"/>
<rect fill="#ffffff" x="-13.51" y="-5.04" transform="translate(1236.20,525.08) rotate(-0.1)" width="27.02" height="10.08" rx="4.84"/>
</svg>
