<?xml version="1.0" encoding="UTF-8" standalone="no"?>
<!DOCTYPE svg PUBLIC "-//W3C//DTD SVG 1.1//EN" "http://www.w3.org/Graphics/SVG/1.1/DTD/svg11.dtd">
<svg xmlns="http://www.w3.org/2000/svg" version="1.1" viewBox="0.00 0.00 806.00 673.00">
<rect fill="#ffffff" x="-1.89" y="-3.83" transform="translate(6.28,4.29) rotate(10.4)" width="3.78" height="7.66" rx="1.68"/>
<rect fill="#ffffff" x="-1.96" y="-3.86" transform="translate(3.66,27.61) rotate(3.8)" width="3.92" height="7.72" rx="1.85"/>
<rect fill="#ffffff" x="-1.96" y="-3.87" transform="translate(2.96,51.08) rotate(-0.6)" width="3.92" height="7.74" rx="1.85"/>
<rect fill="#ffffff" x="-1.96" y="-3.87" transform="translate(3.99,74.50) rotate(-4.8)" width="3.92" height="7.74" rx="1.85"/>
<rect fill="#ffffff" x="-1.96" y="-3.87" transform="translate(6.75,97.83) rotate(-9.1)" width="3.92" height="7.74" rx="1.86"/>
<rect fill="#ffffff" x="-1.96" y="-3.88" transform="translate(11.36,120.84) rotate(-14.3)" width="3.92" height="7.76" rx="1.85"/>
<rect fill="#ffffff" x="-1.97" y="-3.88" transform="translate(18.09,143.34) rotate(-20.0)" width="3.94" height="7.76" rx="1.87"/>
<rect fill="#ffffff" x="-1.96" y="-3.88" transform="translate(27.32,164.90) rotate(-27.9)" width="3.92" height="7.76" rx="1.87"/>
<rect fill="#ffffff" x="-3.86" y="-1.98" transform="translate(105.22,180.68) rotate(-9.0)" width="7.72" height="3.96" rx="1.87"/>
<rect fill="#ffffff" x="-1.97" y="-3.87" transform="translate(39.69,184.83) rotate(-37.2)" width="3.94" height="7.74" rx="1.88"/>
<rect fill="#ffffff" x="-1.98" y="-3.88" transform="translate(124.38,191.67) rotate(-30.0)" width="3.96" height="7.76" rx="1.88"/>
<rect fill="#ffffff" x="-1.96" y="-3.88" transform="translate(89.15,196.32) rotate(24.1)" width="3.92" height="7.76" rx="1.87"/>
<rect fill="#ffffff" x="-3.88" y="-1.97" transform="translate(55.91,201.75) rotate(38.9)" width="7.76" height="3.94" rx="1.87"/>
<rect fill="#ffffff" x="-3.87" y="-1.98" transform="translate(121.57,212.78) rotate(-37.6)" width="7.74" height="3.96" rx="1.89"/>
<rect fill="#ffffff" x="-3.87" y="-1.97" transform="translate(76.17,213.45) rotate(21.3)" width="7.74" height="3.94" rx="1.87"/>
<rect fill="#ffffff" x="-1.97" y="-3.86" transform="translate(82.54,218.79) rotate(9.1)" width="3.94" height="7.72" rx="1.86"/>
<rect fill="#ffffff" x="-3.87" y="-1.95" transform="translate(99.12,217.93) rotate(1.2)" width="7.74" height="3.90" rx="1.84"/>
<rect fill="#ffffff" x="-1.96" y="-3.87" transform="translate(82.72,242.17) rotate(-8.8)" width="3.92" height="7.74" rx="1.86"/>
<rect fill="#ffffff" x="-1.97" y="-3.88" transform="translate(89.35,264.63) rotate(-23.5)" width="3.94" height="7.76" rx="1.87"/>
<rect fill="#ffffff" x="-3.86" y="-1.98" transform="translate(404.16,279.53) rotate(-22.4)" width="7.72" height="3.96" rx="1.88"/>
<rect fill="#ffffff" x="-1.97" y="-3.88" transform="translate(100.83,285.07) rotate(-34.2)" width="3.94" height="7.76" rx="1.87"/>
<ellipse fill="#ffffff" cx="0.00" cy="0.00" transform="translate(422.35,289.10) rotate(67.4)" rx="4.23" ry="2.24"/>
<rect fill="#ffffff" x="-1.97" y="-3.86" transform="translate(389.08,296.61) rotate(17.8)" width="3.94" height="7.72" rx="1.87"/>
<rect fill="#ffffff" x="-1.97" y="-3.87" transform="translate(115.60,303.30) rotate(-43.3)" width="3.94" height="7.74" rx="1.88"/>
<rect fill="#ffffff" x="-1.97" y="-3.87" transform="translate(424.69,312.13) rotate(2.0)" width="3.94" height="7.74" rx="1.84"/>
<rect fill="#ffffff" x="-3.87" y="-1.97" transform="translate(395.00,317.72) rotate(40.1)" width="7.74" height="3.94" rx="1.87"/>
<rect fill="#ffffff" x="-3.87" y="-1.98" transform="translate(132.62,319.48) rotate(40.9)" width="7.74" height="3.96" rx="1.89"/>
<rect fill="#ffffff" x="-3.88" y="-1.96" transform="translate(457.54,325.78) rotate(-0.7)" width="7.76" height="3.92" rx="1.84"/>
<rect fill="#ffffff" x="-3.88" y="-1.96" transform="translate(481.00,326.38) rotate(4.2)" width="7.76" height="3.92" rx="1.85"/>
<rect fill="#ffffff" x="-3.86" y="-1.91" transform="translate(434.13,327.10) rotate(-7.4)" width="7.72" height="3.82" rx="1.79"/>
<rect fill="#ffffff" x="-3.87" y="-1.96" transform="translate(415.83,328.01) rotate(10.9)" width="7.74" height="3.92" rx="1.85"/>
<rect fill="#ffffff" x="-3.87" y="-1.97" transform="translate(504.37,328.70) rotate(7.3)" width="7.74" height="3.94" rx="1.86"/>
<rect fill="#ffffff" x="-3.85" y="-1.97" transform="translate(527.50,332.75) rotate(11.2)" width="7.70" height="3.94" rx="1.86"/>
<rect fill="#ffffff" x="-3.88" y="-1.97" transform="translate(151.23,333.83) rotate(35.3)" width="7.76" height="3.94" rx="1.88"/>
<rect fill="#ffffff" x="-1.96" y="-3.87" transform="translate(420.98,335.26) rotate(16.9)" width="3.92" height="7.74" rx="1.87"/>
<rect fill="#ffffff" x="-3.87" y="-1.97" transform="translate(550.23,338.62) rotate(17.5)" width="7.74" height="3.94" rx="1.87"/>
<rect fill="#ffffff" x="-3.87" y="-1.96" transform="translate(170.98,346.51) rotate(30.5)" width="7.74" height="3.92" rx="1.87"/>
<rect fill="#ffffff" x="-3.87" y="-1.97" transform="translate(572.31,346.56) rotate(22.9)" width="7.74" height="3.94" rx="1.88"/>
<rect fill="#ffffff" x="-1.96" y="-3.89" transform="translate(410.79,356.28) rotate(34.8)" width="3.92" height="7.78" rx="1.87"/>
<rect fill="#ffffff" x="-3.88" y="-1.98" transform="translate(593.36,356.99) rotate(31.2)" width="7.76" height="3.96" rx="1.89"/>
<rect fill="#ffffff" x="-3.88" y="-1.96" transform="translate(191.66,357.69) rotate(27.1)" width="7.76" height="3.92" rx="1.87"/>
<rect fill="#ffffff" x="-3.87" y="-1.97" transform="translate(213.05,367.37) rotate(22.6)" width="7.74" height="3.94" rx="1.87"/>
<rect fill="#ffffff" x="-3.89" y="-1.97" transform="translate(612.56,370.43) rotate(40.1)" width="7.78" height="3.94" rx="1.88"/>
<rect fill="#ffffff" x="-3.86" y="-1.98" transform="translate(394.19,372.73) rotate(-34.6)" width="7.72" height="3.96" rx="1.88"/>
<rect fill="#ffffff" x="-3.88" y="-1.97" transform="translate(235.05,375.59) rotate(18.6)" width="7.76" height="3.94" rx="1.87"/>
<rect fill="#ffffff" x="-3.88" y="-1.96" transform="translate(257.57,382.28) rotate(14.9)" width="7.76" height="3.92" rx="1.86"/>
<rect fill="#ffffff" x="-3.87" y="-1.97" transform="translate(373.38,383.49) rotate(-20.8)" width="7.74" height="3.94" rx="1.87"/>
<rect fill="#ffffff" x="-1.97" y="-3.88" transform="translate(628.55,387.55) rotate(-34.8)" width="3.94" height="7.76" rx="1.87"/>
<rect fill="#ffffff" x="-3.86" y="-1.87" transform="translate(280.53,387.23) rotate(9.0)" width="7.72" height="3.74" rx="1.76"/>
<rect fill="#ffffff" x="-3.87" y="-1.97" transform="translate(350.65,389.28) rotate(-8.8)" width="7.74" height="3.94" rx="1.86"/>
<rect fill="#ffffff" x="-3.88" y="-1.96" transform="translate(303.78,390.45) rotate(4.4)" width="7.76" height="3.92" rx="1.85"/>
<rect fill="#ffffff" x="-3.89" y="-1.96" transform="translate(327.27,391.29) rotate(-0.8)" width="7.78" height="3.92" rx="1.84"/>
<rect fill="#ffffff" x="-1.96" y="-3.87" transform="translate(639.12,408.43) rotate(-17.1)" width="3.92" height="7.74" rx="1.86"/>
<rect fill="#ffffff" x="-3.87" y="-1.96" transform="translate(644.11,415.07) rotate(-4.5)" width="7.74" height="3.92" rx="1.85"/>
<rect fill="#ffffff" x="-3.86" y="-1.97" transform="translate(667.44,416.55) rotate(12.6)" width="7.72" height="3.94" rx="1.86"/>
<rect fill="#ffffff" x="-3.87" y="-1.97" transform="translate(621.32,420.44) rotate(-21.7)" width="7.74" height="3.94" rx="1.87"/>
<rect fill="#ffffff" x="-3.88" y="-1.97" transform="translate(689.50,424.41) rotate(26.0)" width="7.76" height="3.94" rx="1.87"/>
<rect fill="#ffffff" x="-1.95" y="-3.87" transform="translate(642.31,431.60) rotate(0.9)" width="3.90" height="7.74" rx="1.84"/>
<rect fill="#ffffff" x="-1.98" y="-3.87" transform="translate(604.80,435.62) rotate(11.9)" width="3.96" height="7.74" rx="1.88"/>
<rect fill="#ffffff" x="-3.87" y="-1.97" transform="translate(709.28,436.99) rotate(38.2)" width="7.74" height="3.94" rx="1.88"/>
<rect fill="#ffffff" x="-1.97" y="-3.87" transform="translate(726.66,452.75) rotate(-42.8)" width="3.94" height="7.74" rx="1.88"/>
<rect fill="#ffffff" x="-1.99" y="-3.87" transform="translate(635.96,453.71) rotate(40.0)" width="3.98" height="7.74" rx="1.89"/>
<rect fill="#ffffff" x="-3.87" y="-1.97" transform="translate(614.72,455.35) rotate(33.0)" width="7.74" height="3.94" rx="1.88"/>
<rect fill="#ffffff" x="-1.97" y="-3.89" transform="translate(741.89,470.64) rotate(-37.0)" width="3.94" height="7.78" rx="1.87"/>
<rect fill="#ffffff" x="-1.97" y="-3.88" transform="translate(755.18,490.00) rotate(-31.9)" width="3.94" height="7.76" rx="1.87"/>
<rect fill="#ffffff" x="-1.97" y="-3.88" transform="translate(766.77,510.43) rotate(-27.2)" width="3.94" height="7.76" rx="1.87"/>
<rect fill="#ffffff" x="-1.96" y="-3.88" transform="translate(776.77,531.67) rotate(-22.6)" width="3.92" height="7.76" rx="1.86"/>
<rect fill="#ffffff" x="-1.96" y="-3.87" transform="translate(785.27,553.57) rotate(-19.3)" width="3.92" height="7.74" rx="1.87"/>
<rect fill="#ffffff" x="-1.97" y="-3.87" transform="translate(792.27,575.99) rotate(-14.7)" width="3.94" height="7.74" rx="1.86"/>
<rect fill="#ffffff" x="-1.95" y="-3.88" transform="translate(797.72,598.85) rotate(-11.0)" width="3.90" height="7.76" rx="1.85"/>
<rect fill="#ffffff" x="-1.82" y="-3.83" transform="translate(801.35,622.05) rotate(-5.8)" width="3.64" height="7.66" rx="1.57"/>
<rect fill="#ffffff" x="-1.96" y="-3.87" transform="translate(803.31,645.42) rotate(-1.3)" width="3.92" height="7.74" rx="1.84"/>
<rect fill="#ffffff" x="-1.97" y="-3.87" transform="translate(802.88,668.91) rotate(4.1)" width="3.94" height="7.74" rx="1.86"/>
</svg>
