<?xml version="1.0" encoding="UTF-8" standalone="no"?>
<!DOCTYPE svg PUBLIC "-//W3C//DTD SVG 1.1//EN" "http://www.w3.org/Graphics/SVG/1.1/DTD/svg11.dtd">
<svg xmlns="http://www.w3.org/2000/svg" version="1.1" viewBox="0.00 0.00 158.00 273.00">
<path fill="#ffffff" d="
  M 13.67 0.00
  L 14.03 0.00
  Q 15.83 1.04 14.06 4.03
  Q 13.44 5.07 12.46 4.63
  Q 11.99 4.42 12.05 3.90
  Q 12.27 1.90 13.67 0.00
  Z"
/>
<rect fill="#ffffff" x="-1.19" y="-2.32" transform="translate(9.02,15.97) rotate(15.9)" width="2.38" height="4.64" rx="1.12"/>
<rect fill="#ffffff" x="-1.19" y="-2.30" transform="translate(5.70,29.75) rotate(12.0)" width="2.38" height="4.60" rx="1.06"/>
<rect fill="#ffffff" x="-1.19" y="-2.29" transform="translate(3.40,43.75) rotate(7.5)" width="2.38" height="4.58" rx="1.04"/>
<rect fill="#ffffff" x="-1.17" y="-2.30" transform="translate(2.15,57.86) rotate(3.1)" width="2.34" height="4.60" rx="1.02"/>
<rect fill="#ffffff" x="-1.19" y="-2.30" transform="translate(2.02,72.05) rotate(-1.5)" width="2.38" height="4.60" rx="1.04"/>
<rect fill="#ffffff" x="-1.19" y="-2.31" transform="translate(3.21,86.18) rotate(-8.0)" width="2.38" height="4.62" rx="1.08"/>
<rect fill="#ffffff" x="-1.19" y="-2.35" transform="translate(5.99,100.09) rotate(-15.3)" width="2.38" height="4.70" rx="1.12"/>
<rect fill="#ffffff" x="-1.19" y="-2.33" transform="translate(10.83,113.40) rotate(-24.3)" width="2.38" height="4.66" rx="1.10"/>
<rect fill="#ffffff" x="-2.32" y="-1.19" transform="translate(50.10,119.08) rotate(3.0)" width="4.64" height="2.38" rx="1.11"/>
<rect fill="#ffffff" x="-1.19" y="-2.33" transform="translate(18.33,125.43) rotate(-39.3)" width="2.38" height="4.66" rx="1.13"/>
<rect fill="#ffffff" x="-1.20" y="-2.32" transform="translate(38.64,126.35) rotate(37.1)" width="2.40" height="4.64" rx="1.12"/>
<rect fill="#ffffff" x="-1.19" y="-2.32" transform="translate(60.06,127.95) rotate(-17.6)" width="2.38" height="4.64" rx="1.09"/>
<rect fill="#ffffff" x="-2.34" y="-1.19" transform="translate(28.87,134.86) rotate(31.7)" width="4.68" height="2.38" rx="1.14"/>
<rect fill="#ffffff" x="-1.19" y="-2.34" transform="translate(31.96,138.79) rotate(20.6)" width="2.38" height="4.68" rx="1.12"/>
<rect fill="#ffffff" x="-2.33" y="-1.20" transform="translate(55.80,140.09) rotate(-26.8)" width="4.66" height="2.40" rx="1.13"/>
<rect fill="#ffffff" x="-2.32" y="-1.19" transform="translate(41.90,140.36) rotate(12.8)" width="4.64" height="2.38" rx="1.13"/>
<rect fill="#ffffff" x="-1.18" y="-2.31" transform="translate(29.16,152.67) rotate(3.9)" width="2.36" height="4.62" rx="1.06"/>
<rect fill="#ffffff" x="-1.20" y="-2.28" transform="translate(30.30,166.75) rotate(-9.8)" width="2.40" height="4.56" rx="1.05"/>
<ellipse fill="#ffffff" cx="0.00" cy="0.00" transform="translate(34.56,180.28) rotate(67.7)" rx="2.45" ry="1.30"/>
<rect fill="#ffffff" x="-1.20" y="-2.32" transform="translate(41.03,192.89) rotate(-30.7)" width="2.40" height="4.64" rx="1.12"/>
<rect fill="#ffffff" x="-1.19" y="-2.33" transform="translate(49.11,204.58) rotate(-37.9)" width="2.38" height="4.66" rx="1.14"/>
<rect fill="#ffffff" x="-1.19" y="-2.31" transform="translate(58.29,215.34) rotate(-43.1)" width="2.38" height="4.62" rx="1.09"/>
<rect fill="#ffffff" x="-2.33" y="-1.20" transform="translate(68.42,225.30) rotate(42.1)" width="4.66" height="2.40" rx="1.14"/>
<rect fill="#ffffff" x="-2.33" y="-1.20" transform="translate(79.26,234.47) rotate(39.4)" width="4.66" height="2.40" rx="1.14"/>
<rect fill="#ffffff" x="-2.32" y="-1.20" transform="translate(90.70,242.85) rotate(34.2)" width="4.64" height="2.40" rx="1.13"/>
<rect fill="#ffffff" x="-2.33" y="-1.20" transform="translate(102.71,250.45) rotate(30.6)" width="4.66" height="2.40" rx="1.14"/>
<rect fill="#ffffff" x="-2.33" y="-1.18" transform="translate(115.18,257.18) rotate(26.8)" width="4.66" height="2.36" rx="1.12"/>
<rect fill="#ffffff" x="-2.32" y="-1.07" transform="translate(128.15,262.92) rotate(21.8)" width="4.64" height="2.14" rx="1.01"/>
<rect fill="#ffffff" x="-2.31" y="-1.19" transform="translate(141.52,267.75) rotate(18.4)" width="4.62" height="2.38" rx="1.10"/>
<rect fill="#ffffff" x="-2.33" y="-1.19" transform="translate(155.28,271.17) rotate(10.3)" width="4.66" height="2.38" rx="1.11"/>
</svg>
