<?xml version="1.0" encoding="UTF-8" standalone="no"?>
<!DOCTYPE svg PUBLIC "-//W3C//DTD SVG 1.1//EN" "http://www.w3.org/Graphics/SVG/1.1/DTD/svg11.dtd">
<svg xmlns="http://www.w3.org/2000/svg" version="1.1" viewBox="0.00 0.00 126.00 549.00">
<rect fill="#ffffff" x="-1.51" y="-2.95" transform="translate(115.32,12.91) rotate(37.7)" width="3.02" height="5.90" rx="1.44"/>
<rect fill="#ffffff" x="-1.50" y="-2.97" transform="translate(104.83,27.44) rotate(34.0)" width="3.00" height="5.94" rx="1.44"/>
<rect fill="#ffffff" x="-1.50" y="-2.96" transform="translate(95.39,42.67) rotate(29.0)" width="3.00" height="5.92" rx="1.42"/>
<rect fill="#ffffff" x="-1.51" y="-2.95" transform="translate(87.12,58.57) rotate(25.5)" width="3.02" height="5.90" rx="1.44"/>
<rect fill="#ffffff" x="-1.50" y="-2.95" transform="translate(80.26,75.12) rotate(20.6)" width="3.00" height="5.90" rx="1.42"/>
<rect fill="#ffffff" x="-1.50" y="-2.94" transform="translate(75.13,92.29) rotate(13.7)" width="3.00" height="5.88" rx="1.41"/>
<rect fill="#ffffff" x="-1.49" y="-2.94" transform="translate(72.27,109.95) rotate(4.4)" width="2.98" height="5.88" rx="1.41"/>
<rect fill="#ffffff" x="-1.50" y="-2.94" transform="translate(72.42,127.83) rotate(-5.4)" width="3.00" height="5.88" rx="1.41"/>
<rect fill="#ffffff" x="-1.51" y="-2.95" transform="translate(76.55,145.25) rotate(-21.2)" width="3.02" height="5.90" rx="1.43"/>
<rect fill="#ffffff" x="-2.92" y="-1.51" transform="translate(113.41,149.95) rotate(8.3)" width="5.84" height="3.02" rx="1.37"/>
<rect fill="#ffffff" x="-2.96" y="-1.51" transform="translate(96.61,155.06) rotate(-31.6)" width="5.92" height="3.02" rx="1.44"/>
<rect fill="#ffffff" x="-1.50" y="-2.95" transform="translate(123.26,162.84) rotate(-0.5)" width="3.00" height="5.90" rx="1.41"/>
<rect fill="#ffffff" x="-2.96" y="-1.40" transform="translate(85.49,163.18) rotate(-39.4)" width="5.92" height="2.80" rx="1.33"/>
<rect fill="#ffffff" x="-2.96" y="-1.51" transform="translate(98.20,173.14) rotate(35.9)" width="5.92" height="3.02" rx="1.44"/>
<rect fill="#ffffff" x="-2.98" y="-1.49" transform="translate(72.14,175.14) rotate(-44.5)" width="5.96" height="2.98" rx="1.43"/>
<rect fill="#ffffff" x="-2.93" y="-1.52" transform="translate(114.78,177.41) rotate(-21.3)" width="5.86" height="3.04" rx="1.41"/>
<rect fill="#ffffff" x="-1.51" y="-2.95" transform="translate(59.78,188.11) rotate(41.1)" width="3.02" height="5.90" rx="1.44"/>
<rect fill="#ffffff" x="-1.51" y="-2.95" transform="translate(48.32,201.91) rotate(37.7)" width="3.02" height="5.90" rx="1.44"/>
<rect fill="#ffffff" x="-1.50" y="-2.97" transform="translate(37.83,216.44) rotate(34.0)" width="3.00" height="5.94" rx="1.44"/>
<rect fill="#ffffff" x="-1.50" y="-2.96" transform="translate(28.38,231.67) rotate(29.0)" width="3.00" height="5.92" rx="1.42"/>
<rect fill="#ffffff" x="-1.51" y="-2.95" transform="translate(20.12,247.57) rotate(25.5)" width="3.02" height="5.90" rx="1.44"/>
<rect fill="#ffffff" x="-1.50" y="-2.95" transform="translate(13.26,264.12) rotate(20.6)" width="3.00" height="5.90" rx="1.42"/>
<rect fill="#ffffff" x="-1.50" y="-2.94" transform="translate(8.13,281.29) rotate(13.7)" width="3.00" height="5.88" rx="1.41"/>
<rect fill="#ffffff" x="-1.50" y="-2.94" transform="translate(5.27,298.95) rotate(4.4)" width="3.00" height="5.88" rx="1.41"/>
<rect fill="#ffffff" x="-1.50" y="-2.94" transform="translate(5.42,316.83) rotate(-5.4)" width="3.00" height="5.88" rx="1.41"/>
<rect fill="#ffffff" x="-1.50" y="-2.95" transform="translate(9.55,334.25) rotate(-21.2)" width="3.00" height="5.90" rx="1.43"/>
<rect fill="#ffffff" x="-2.92" y="-1.51" transform="translate(46.41,338.95) rotate(8.2)" width="5.84" height="3.02" rx="1.37"/>
<rect fill="#ffffff" x="-2.96" y="-1.51" transform="translate(29.61,344.06) rotate(-31.6)" width="5.92" height="3.02" rx="1.44"/>
<rect fill="#ffffff" x="-1.51" y="-2.96" transform="translate(18.31,349.79) rotate(-37.1)" width="3.02" height="5.92" rx="1.43"/>
<rect fill="#ffffff" x="-1.50" y="-2.95" transform="translate(56.26,351.84) rotate(-0.5)" width="3.00" height="5.90" rx="1.41"/>
<rect fill="#ffffff" x="-1.50" y="-2.95" transform="translate(16.10,355.74) rotate(39.3)" width="3.00" height="5.90" rx="1.42"/>
<rect fill="#ffffff" x="-2.96" y="-1.51" transform="translate(31.20,362.14) rotate(35.9)" width="5.92" height="3.02" rx="1.44"/>
<rect fill="#ffffff" x="-2.92" y="-1.51" transform="translate(47.77,366.41) rotate(-21.4)" width="5.84" height="3.02" rx="1.39"/>
<rect fill="#ffffff" x="-1.50" y="-2.95" transform="translate(7.14,371.17) rotate(20.3)" width="3.00" height="5.90" rx="1.42"/>
<rect fill="#ffffff" x="-1.50" y="-2.95" transform="translate(2.83,388.51) rotate(6.3)" width="3.00" height="5.90" rx="1.40"/>
<rect fill="#ffffff" x="-1.50" y="-2.92" transform="translate(2.21,406.41) rotate(-2.3)" width="3.00" height="5.84" rx="1.33"/>
<rect fill="#ffffff" x="-1.51" y="-2.95" transform="translate(4.26,424.17) rotate(-10.2)" width="3.02" height="5.90" rx="1.43"/>
<rect fill="#ffffff" x="-1.51" y="-2.94" transform="translate(8.35,441.61) rotate(-15.0)" width="3.02" height="5.88" rx="1.43"/>
<rect fill="#ffffff" x="-1.50" y="-2.95" transform="translate(14.03,458.61) rotate(-20.7)" width="3.00" height="5.90" rx="1.43"/>
<rect fill="#ffffff" x="-1.50" y="-2.95" transform="translate(21.05,475.10) rotate(-26.2)" width="3.00" height="5.90" rx="1.43"/>
<rect fill="#ffffff" x="-1.51" y="-2.94" transform="translate(29.26,491.01) rotate(-30.3)" width="3.02" height="5.88" rx="1.42"/>
<rect fill="#ffffff" x="-1.51" y="-2.95" transform="translate(38.63,506.26) rotate(-34.6)" width="3.02" height="5.90" rx="1.45"/>
<rect fill="#ffffff" x="-1.40" y="-2.96" transform="translate(49.25,520.69) rotate(-38.8)" width="2.80" height="5.92" rx="1.32"/>
<rect fill="#ffffff" x="-1.51" y="-2.94" transform="translate(61.06,534.14) rotate(-43.6)" width="3.02" height="5.88" rx="1.43"/>
<rect fill="#ffffff" x="-2.97" y="-1.51" transform="translate(74.54,545.89) rotate(35.9)" width="5.94" height="3.02" rx="1.44"/>
</svg>
