<svg id="visual" viewBox="0 0 1920 600" preserveAspectRatio="none"  xmlns="http://www.w3.org/2000/svg" xmlns:xlink="http://www.w3.org/1999/xlink" version="1.1"><path d="M0 392L64 410.8C128 429.7 256 467.3 384 476C512 484.7 640 464.3 768 436.3C896 408.3 1024 372.7 1152 351.2C1280 329.7 1408 322.3 1536 346.3C1664 370.3 1792 425.7 1856 453.3L1920 481L1920 601L1856 601C1792 601 1664 601 1536 601C1408 601 1280 601 1152 601C1024 601 896 601 768 601C640 601 512 601 384 601C256 601 128 601 64 601L0 601Z" fill="#41aeb4" stroke-linecap="round" stroke-linejoin="miter"></path></svg>